<?xml version="1.0" encoding="UTF-8" standalone="no"?>
<!-- Created with Inkscape (http://www.inkscape.org/) -->

<svg
   xmlns:dc="http://purl.org/dc/elements/1.1/"
   xmlns:cc="http://creativecommons.org/ns#"
   xmlns:rdf="http://www.w3.org/1999/02/22-rdf-syntax-ns#"
   xmlns:svg="http://www.w3.org/2000/svg"
   xmlns="http://www.w3.org/2000/svg"
   xmlns:sodipodi="http://sodipodi.sourceforge.net/DTD/sodipodi-0.dtd"
   xmlns:inkscape="http://www.inkscape.org/namespaces/inkscape"
   width="24"
   height="24"
   id="svg2"
   version="1.1"
   inkscape:version="0.91 r13725"
   sodipodi:docname="wheel.svg">
  <defs
     id="defs4" />
  <sodipodi:namedview
     id="base"
     pagecolor="#ffffff"
     bordercolor="#666666"
     borderopacity="1.0"
     inkscape:pageopacity="0.0"
     inkscape:pageshadow="2"
     inkscape:zoom="32"
     inkscape:cx="12.270246"
     inkscape:cy="12.508828"
     inkscape:document-units="px"
     inkscape:current-layer="layer1"
     showgrid="true"
     inkscape:window-width="1545"
     inkscape:window-height="1033"
     inkscape:window-x="1998"
     inkscape:window-y="0"
     inkscape:window-maximized="0"
     showguides="true"
     inkscape:guide-bbox="true"
     guidetolerance="20"
     gridtolerance="10000">
    <sodipodi:guide
       position="0,13.125"
       orientation="1,0"
       id="guide4142"
       inkscape:label=""
       inkscape:color="rgb(0,0,255)" />
    <sodipodi:guide
       position="24,13.6875"
       orientation="1,0"
       id="guide4144"
       inkscape:label=""
       inkscape:color="rgb(0,0,255)" />
    <sodipodi:guide
       position="23.34375,24"
       orientation="0,1"
       id="guide4146"
       inkscape:label=""
       inkscape:color="rgb(0,0,255)" />
    <sodipodi:guide
       position="22.75,0"
       orientation="0,1"
       id="guide4148"
       inkscape:label=""
       inkscape:color="rgb(0,0,255)" />
    <sodipodi:guide
       position="12,14.1875"
       orientation="1,0"
       id="guide4152"
       inkscape:label=""
       inkscape:color="rgb(0,255,0)" />
    <sodipodi:guide
       position="14.906,12"
       orientation="0,1"
       id="guide4154"
       inkscape:label=""
       inkscape:color="rgb(0,255,0)" />
    <sodipodi:guide
       position="-1.9375,14"
       orientation="0,1"
       id="guide4156"
       inkscape:label=""
       inkscape:color="rgb(0,0,255)" />
    <sodipodi:guide
       position="-3.09375,10"
       orientation="0,1"
       id="guide4158"
       inkscape:label=""
       inkscape:color="rgb(0,0,255)" />
    <sodipodi:guide
       position="10,18.09375"
       orientation="1,0"
       id="guide4160"
       inkscape:label=""
       inkscape:color="rgb(0,0,255)" />
    <sodipodi:guide
       position="14,19.59375"
       orientation="1,0"
       id="guide4162" />
    <sodipodi:guide
       position="19.40625,18"
       orientation="0,1"
       id="guide6385"
       inkscape:label=""
       inkscape:color="rgb(0,0,255)" />
    <sodipodi:guide
       position="20,17"
       orientation="1,0"
       id="guide6387"
       inkscape:label=""
       inkscape:color="rgb(0,0,255)" />
    <sodipodi:guide
       position="4,16.53125"
       orientation="1,0"
       id="guide6389"
       inkscape:label=""
       inkscape:color="rgb(0,0,255)" />
    <sodipodi:guide
       position="6,21.3125"
       orientation="1,0"
       id="guide6391"
       inkscape:label=""
       inkscape:color="rgb(0,0,255)" />
    <sodipodi:guide
       position="18,18.8125"
       orientation="1,0"
       id="guide6393"
       inkscape:label=""
       inkscape:color="rgb(0,0,255)" />
    <inkscape:grid
       type="xygrid"
       id="grid6448"
       dotted="false" />
  </sodipodi:namedview>
  <metadata
     id="metadata7">
    <rdf:RDF>
      <cc:Work
         rdf:about="">
        <dc:format>image/svg+xml</dc:format>
        <dc:type
           rdf:resource="http://purl.org/dc/dcmitype/StillImage" />
        <dc:title></dc:title>
        <dc:creator>
          <cc:Agent>
            <dc:title>Vincenzo De Vivo</dc:title>
          </cc:Agent>
        </dc:creator>
        <dc:description>http://www.vincenzodevivo.com</dc:description>
      </cc:Work>
    </rdf:RDF>
  </metadata>
  <g
     inkscape:label="Layer 1"
     inkscape:groupmode="layer"
     id="layer1"
     transform="translate(0,-1028.3622)">
    <path
       style="fill:#000000;fill-opacity:1;stroke:none;stroke-width:1.5;stroke-miterlimit:4;stroke-dasharray:none;stroke-opacity:1"
       d="M 12 0 A 12 12 0 0 0 0 12 A 12 12 0 0 0 12 24 A 12 12 0 0 0 24 12 A 12 12 0 0 0 12 0 z M 11.435547 4.5234375 L 10.863281 8.1660156 A 4 4 0 0 0 8.7128906 9.7285156 L 5.0664062 9.1464844 A 7.5 7.5 0 0 1 11.435547 4.5234375 z M 12.564453 4.5273438 A 7.5 7.5 0 0 1 18.929688 9.1484375 L 15.291016 9.7285156 A 4 4 0 0 0 13.136719 8.1679688 L 12.564453 4.5273438 z M 4.7246094 10.220703 L 8.0039062 11.888672 A 4 4 0 0 0 8 12 A 4 4 0 0 0 8.828125 14.425781 L 7.1464844 17.716797 A 7.5 7.5 0 0 1 4.5 12 A 7.5 7.5 0 0 1 4.7246094 10.220703 z M 19.277344 10.220703 A 7.5 7.5 0 0 1 19.5 12 A 7.5 7.5 0 0 1 16.849609 17.710938 L 15.173828 14.429688 A 4 4 0 0 0 16 12 A 4 4 0 0 0 15.994141 11.888672 L 19.277344 10.220703 z M 12 11 A 1 1 0 0 1 13 12 A 1 1 0 0 1 12 13 A 1 1 0 0 1 11 12 A 1 1 0 0 1 12 11 z M 10.664062 15.765625 A 4 4 0 0 0 12 16 A 4 4 0 0 0 13.337891 15.765625 L 15.941406 18.375 A 7.5 7.5 0 0 1 12 19.5 A 7.5 7.5 0 0 1 8.0625 18.371094 L 10.664062 15.765625 z "
       transform="translate(0,1028.3622)"
       id="path6513" />
  </g>
</svg>
